<svg width="12" height="9" viewBox="0 0 12 9" fill="none" xmlns="http://www.w3.org/2000/svg">
<path d="M6.27229 4.38489L4.47244 7.46744L2.6726 4.38489H6.27229ZM6.75446 4.10938H2.18848L4.47244 8.01268L6.75446 4.10938Z" fill="#263238"/>
<path d="M9.40141 0.551006L11.2012 3.63356H7.60155L9.40141 0.551006ZM9.40141 0L7.11743 3.90328H11.6854L9.40141 0Z" fill="#263238"/>
<path d="M0 0L1.91503 3.45247L4.00768 0.0866921L0 0Z" fill="#4CAF4F"/>
<path d="M4.47234 0.30249L6.48107 3.73569H2.45972L4.47234 0.30249Z" fill="#4CAF4F"/>
<path d="M6.99842 4.48511L9.0091 8.01273H4.89209L6.93595 4.48511H6.99842Z" fill="#4CAF4F"/>
<path d="M7.43384 4.27124L9.40156 7.74489L11.3966 4.27124H7.43384Z" fill="#4CAF4F"/>
</svg>
