<svg width="17" height="17" viewBox="0 0 17 17" fill="none" xmlns="http://www.w3.org/2000/svg">
<g clip-path="url(#clip0_212_1147)">
<path d="M14.1685 3.90304C14.1685 4.05862 14.2961 4.18474 14.4536 4.18474H14.7388C14.8963 4.18474 15.024 4.05862 15.024 3.90304C15.024 3.74746 14.8963 3.62134 14.7388 3.62134H14.4536C14.2961 3.62134 14.1685 3.74746 14.1685 3.90304Z" fill="#212326"/>
<path d="M5.89829 12.6357H7.28364L6.88033 12.2373C6.77338 12.1317 6.6283 12.0723 6.47704 12.0723H5.89829C3.6933 12.0723 1.9058 10.3066 1.9058 8.12854C1.9058 5.95043 3.6933 4.18474 5.89829 4.18474H10.4611C12.6661 4.18474 14.4536 5.95043 14.4536 8.12854C14.4536 10.3066 12.6661 12.0723 10.4611 12.0723H8.75427C8.52736 12.0723 8.30975 11.9833 8.1493 11.8248L7.67682 11.3581C7.40941 11.0939 7.04671 10.9455 6.66855 10.9455H5.89829C4.32329 10.9455 3.04652 9.68433 3.04652 8.12854C3.04652 6.57274 4.32329 5.31154 5.89829 5.31154H10.4611C12.0361 5.31154 13.3129 6.57274 13.3129 8.12854C13.3129 9.68433 12.0361 10.9455 10.4611 10.9455H9.36516C9.13825 10.9455 8.92065 10.8565 8.7602 10.698L8.28769 10.2313C8.02029 9.96714 7.65761 9.81874 7.27944 9.81874H5.89829C4.9533 9.81874 4.18723 9.062 4.18723 8.12854C4.18723 7.19507 4.9533 6.43834 5.89829 6.43834H10.4611C11.4061 6.43834 12.1722 7.19507 12.1722 8.12854C12.1722 9.05062 11.4247 9.80026 10.4956 9.8184L10.4954 9.81874H10.0781C9.8512 9.81874 9.6336 9.7297 9.47314 9.57122L9.00064 9.10448C8.78123 8.88773 8.49768 8.74893 8.19404 8.70609L8.17971 8.69194H5.89829C5.5833 8.69194 5.32794 8.43969 5.32794 8.12854C5.32794 7.81738 5.5833 7.56514 5.89829 7.56514H10.4611C10.7761 7.56514 11.0315 7.81738 11.0315 8.12854C11.0315 8.43969 10.7761 8.69194 10.4611 8.69194H9.32042L9.72373 9.09033C9.83069 9.19598 9.97576 9.25534 10.127 9.25534H10.4611C11.0911 9.25534 11.6018 8.75084 11.6018 8.12854C11.6018 7.50623 11.0911 7.00174 10.4611 7.00174H5.89829C5.2683 7.00174 4.75758 7.50623 4.75758 8.12854C4.75758 8.75084 5.2683 9.25534 5.89829 9.25534H7.99239C8.2193 9.25534 8.4369 9.34438 8.59735 9.50285L9.06986 9.96959C9.33726 10.2337 9.69994 10.3821 10.0781 10.3821H10.6037V10.3778C11.7973 10.3051 12.7426 9.32585 12.7426 8.12854C12.7426 6.88392 11.7211 5.87494 10.4611 5.87494H5.89829C4.63831 5.87494 3.61687 6.88392 3.61687 8.12854C3.61687 9.37318 4.63831 10.3821 5.89829 10.3821H7.27944C7.50635 10.3821 7.72395 10.4712 7.88441 10.6296L8.35691 11.0964C8.62432 11.3605 8.98699 11.5089 9.36516 11.5089H10.4611C12.3511 11.5089 13.8833 9.99549 13.8833 8.12854C13.8833 6.26159 12.3511 4.74814 10.4611 4.74814H5.89829C4.00829 4.74814 2.47616 6.26159 2.47616 8.12854C2.47616 9.99549 4.00829 11.5089 5.89829 11.5089H6.66855C6.89546 11.5089 7.11306 11.598 7.27351 11.7564L7.74602 12.2232C8.01342 12.4873 8.3761 12.6357 8.75427 12.6357H10.4611C12.9811 12.6357 15.024 10.6178 15.024 8.12854C15.024 5.63928 12.9811 3.62134 10.4611 3.62134L5.89829 3.62134C3.3783 3.62134 1.33545 5.63928 1.33545 8.12854C1.33545 10.6178 3.3783 12.6357 5.89829 12.6357Z" fill="#212326"/>
</g>
<defs>
<clipPath id="clip0_212_1147">
<rect width="13.6885" height="9.0144" fill="white" transform="translate(1.33545 3.62134)"/>
</clipPath>
</defs>
</svg>
