<svg width="17" height="17" viewBox="0 0 17 17" fill="none" xmlns="http://www.w3.org/2000/svg">
<g clip-path="url(#clip0_212_1131)">
<path d="M15.0227 4.4777C15.0227 4.48899 15.0227 4.5031 15.0197 4.51157C15.005 4.62164 15.005 4.73171 15.0138 4.8446C15.0197 4.87283 15.0256 4.90105 15.0491 4.92363C15.0873 4.96596 15.1461 4.9575 15.1697 4.90669C15.1815 4.88129 15.1815 4.85589 15.1756 4.83049C15.1461 4.72324 15.1403 4.61035 15.1373 4.50028C15.1373 4.49463 15.1373 4.48617 15.1373 4.4777C15.1697 4.47488 15.1991 4.47205 15.2255 4.47205C15.2461 4.46923 15.2638 4.46641 15.2785 4.45794C15.3226 4.43536 15.3226 4.38739 15.2755 4.36481C15.2579 4.35634 15.2344 4.35352 15.2138 4.35352C15.1403 4.35634 15.0668 4.35634 14.9932 4.35634C14.9668 4.35634 14.9403 4.35916 14.9138 4.36198C14.8991 4.36481 14.8815 4.36481 14.8698 4.37327C14.8491 4.38174 14.8374 4.39585 14.8374 4.41561C14.8403 4.43536 14.8491 4.44665 14.8698 4.45512C14.8815 4.46359 14.8962 4.46641 14.9109 4.46641C14.9462 4.46923 14.9844 4.47488 15.0227 4.4777ZM15.8313 4.60753C15.8313 4.61035 15.8343 4.61317 15.8343 4.61317C15.846 4.68937 15.8578 4.76275 15.8666 4.83613C15.8696 4.86153 15.8725 4.88411 15.8901 4.90387C15.9284 4.95185 15.9872 4.9462 16.0136 4.8954C16.0254 4.87 16.0283 4.8446 16.0225 4.81638C16.0048 4.73171 15.996 4.64704 15.9783 4.56519C15.9666 4.51439 15.9519 4.46641 15.9372 4.42125C15.9284 4.39303 15.9078 4.37327 15.8725 4.37045C15.8372 4.36481 15.8107 4.38174 15.796 4.40714C15.7784 4.42972 15.7637 4.4523 15.7519 4.4777C15.7313 4.52286 15.7137 4.56801 15.6902 4.61035C15.6872 4.62164 15.6843 4.63011 15.6784 4.63857C15.6755 4.63293 15.6725 4.63011 15.6725 4.63011C15.6343 4.55955 15.599 4.48899 15.5608 4.42125C15.5549 4.41561 15.552 4.40996 15.549 4.40432C15.5314 4.37892 15.5108 4.36481 15.4785 4.36481C15.449 4.36763 15.4255 4.38456 15.4108 4.40996C15.4049 4.42125 15.4049 4.42972 15.402 4.44101C15.3902 4.53132 15.3755 4.62164 15.3638 4.71195C15.3579 4.76276 15.3549 4.81356 15.3549 4.86436C15.352 4.87565 15.3549 4.88976 15.3608 4.90105C15.3667 4.92363 15.3843 4.93774 15.4079 4.94056C15.4373 4.94338 15.4579 4.93492 15.4667 4.91234C15.4755 4.8954 15.4785 4.88129 15.4814 4.86718C15.4932 4.81638 15.502 4.7684 15.5108 4.72042C15.5167 4.6922 15.5196 4.66962 15.5284 4.63857C15.5343 4.64986 15.5402 4.65833 15.5461 4.66679C15.5725 4.70066 15.599 4.73453 15.6314 4.76275C15.6637 4.78533 15.6902 4.78251 15.7166 4.75711C15.7225 4.75146 15.7255 4.74864 15.7313 4.743C15.7578 4.70348 15.7902 4.66397 15.8166 4.62446C15.8225 4.61881 15.8254 4.61317 15.8313 4.60753Z" fill="#3A3B7B"/>
<path d="M9.05591 4.53311C9.03547 4.58675 9.03157 4.62539 9.04101 4.65751C9.05143 4.70118 9.07849 4.71548 9.11521 4.70437C9.4606 4.6224 10.218 4.85508 10.4984 4.91993C10.5645 4.93355 10.6183 4.85161 10.5732 4.77815C10.5074 4.70701 9.7503 4.40242 9.46143 4.38582C9.34821 4.37967 9.14578 4.35181 9.05591 4.53311Z" fill="#3A3B7B"/>
<path d="M12.0159 3.54726C12.0527 3.56765 12.0733 3.5871 12.0835 3.60884C12.0986 3.63735 12.0906 3.65707 12.0652 3.66714C11.8369 3.77408 11.5331 4.23452 11.4104 4.39331C11.3807 4.42984 11.3121 4.40862 11.3018 4.34854C11.3039 4.28062 11.5732 3.78095 11.7235 3.64485C11.7826 3.59172 11.8802 3.48746 12.0159 3.54726Z" fill="#3A3B7B"/>
<path d="M10.1976 3.32056C10.2419 3.28857 10.2878 3.27736 10.3113 3.29815C10.6558 3.5809 10.8384 4.02866 10.9516 4.43858C10.9558 4.44813 10.9561 4.46183 10.9527 4.47613C10.9513 4.48835 10.942 4.50125 10.9272 4.51124C10.9114 4.52227 10.8978 4.52563 10.8914 4.51613C10.7405 4.31903 9.87815 3.55219 10.1976 3.32056Z" fill="#3A3B7B"/>
<path d="M2.90292 8.22263C2.98549 8.16363 3.07524 8.11452 3.17022 8.07641C3.2696 8.04914 3.37551 8.05365 3.47197 8.0893C3.56841 8.12495 3.65016 8.18975 3.70482 8.27394C3.75371 8.35791 3.77283 8.45487 3.75933 8.55019C3.74584 8.64549 3.70045 8.73402 3.62997 8.80243C3.57534 8.85789 3.51331 8.90619 3.44554 8.9461C3.1435 9.13339 2.83877 9.31039 2.53405 9.49768C2.4717 9.54455 2.40555 9.5866 2.33625 9.62339C2.23083 9.67385 2.11035 9.68736 1.99565 9.66159C1.88094 9.63584 1.77923 9.5724 1.70809 9.48229C1.65491 9.41848 1.61003 9.3487 1.57444 9.27448C1.28576 8.69212 0.986386 8.11232 0.708394 7.51968C0.580089 7.26315 0.475843 6.96811 0.374269 6.68334C0.330324 6.60061 0.321742 6.50469 0.350352 6.41596C0.378962 6.32724 0.442505 6.25273 0.527466 6.20828C0.612428 6.16383 0.712101 6.15296 0.805292 6.17796C0.898483 6.20296 0.977839 6.26186 1.02648 6.34214C1.17599 6.53283 1.30833 6.73539 1.42208 6.9476C1.71077 7.46069 1.98609 7.97377 2.26408 8.47148C2.28026 8.49899 2.29811 8.52552 2.31754 8.55101C2.52677 8.46657 2.72357 8.35617 2.90292 8.22263Z" fill="#3A3B7B"/>
<path d="M5.8877 8.04364C5.22748 8.78505 4.12085 8.59776 3.56487 7.64341C3.16926 6.96613 3.09977 5.84758 3.96048 5.14207C4.14428 4.99437 4.36405 4.89375 4.59932 4.84961C4.88778 4.80992 5.18193 4.85876 5.43972 4.98915C5.69751 5.11955 5.90577 5.32482 6.03473 5.57564C6.50517 6.3966 6.43834 7.4433 5.8877 8.04364ZM5.6204 6.3145C5.55026 6.11276 5.40955 5.94053 5.22212 5.82705C5.11607 5.7545 4.98719 5.71922 4.85722 5.72717C4.72723 5.73511 4.60407 5.78579 4.50844 5.87066C4.12621 6.19649 4.046 6.9687 4.32399 7.42792C4.35944 7.5028 4.41146 7.56935 4.4765 7.62291C4.54153 7.67647 4.61797 7.71574 4.70046 7.73797C4.78295 7.76022 4.86951 7.76488 4.95408 7.75166C5.03866 7.73841 5.11918 7.7076 5.19007 7.66137C5.39726 7.50718 5.54927 7.29488 5.62495 7.05397C5.70065 6.81304 5.69626 6.55547 5.6124 6.31707L5.6204 6.3145Z" fill="#3A3B7B"/>
<path d="M8.582 6.63794C8.51442 6.65189 8.44459 6.65272 8.37664 6.64038C8.30872 6.62803 8.24403 6.60279 8.18642 6.56611C8.136 6.53843 8.0926 6.50038 8.05934 6.45468C8.02609 6.40898 8.00381 6.35678 7.9941 6.30181C7.98437 6.24687 7.98749 6.19053 8.00316 6.13686C8.01885 6.08319 8.04676 6.03353 8.08485 5.99143C8.1512 5.90685 8.24539 5.84629 8.35214 5.81955C8.63085 5.74192 8.91776 5.69459 9.2075 5.67846C9.27116 5.67135 9.33566 5.67652 9.39719 5.69367C9.45875 5.71083 9.51609 5.73959 9.5659 5.77832C9.61569 5.81702 9.65693 5.86491 9.6872 5.91913C9.71744 5.97335 9.73611 6.03283 9.74209 6.09407C9.82562 6.39487 9.83476 6.71027 9.76882 7.01508C9.52826 8.00021 8.69963 8.33885 7.76942 8.0233C7.50831 7.93893 7.27937 7.78173 7.11187 7.57178C6.88846 7.31894 6.73007 7.0193 6.64943 6.69695C6.58411 6.4099 6.59126 6.11204 6.67033 5.8282C6.74937 5.54436 6.89801 5.28278 7.10384 5.06531C7.29918 4.82894 7.55272 4.64291 7.8416 4.52399C8.02414 4.42742 8.23775 4.39996 8.44035 4.44702C8.48631 4.45923 8.52802 4.48302 8.56118 4.51592C8.59433 4.54882 8.61771 4.58963 8.6289 4.63413C8.64009 4.67862 8.63865 4.72518 8.62478 4.76897C8.61088 4.81276 8.58505 4.85218 8.54995 4.88316C8.48319 4.94115 8.41067 4.99271 8.33342 5.03708C8.09579 5.18233 7.88899 5.36949 7.72398 5.58866C7.61582 5.73048 7.54133 5.89334 7.50578 6.06574C7.4702 6.23815 7.47444 6.41595 7.51817 6.58664C7.57879 6.81937 7.71331 7.02826 7.90307 7.18438C8.49113 7.69749 9.25561 7.20234 9.12196 6.50197C8.92684 6.54816 8.75576 6.5969 8.582 6.63794Z" fill="#3A3B7B"/>
<path d="M12.1747 8.08474C11.306 8.59785 10.317 8.08474 10.1005 7.00726C9.94276 6.23761 10.2421 5.16011 11.29 4.74963C11.5129 4.66418 11.7547 4.63417 11.9929 4.6624C12.2792 4.7127 12.5418 4.84794 12.7437 5.04908C12.9455 5.25022 13.0766 5.5071 13.1183 5.78352C13.2947 6.69939 12.8937 7.67684 12.1747 8.08474ZM12.4768 6.35818C12.4765 6.14506 12.398 5.93883 12.2549 5.77582C12.1784 5.67499 12.0679 5.60275 11.9422 5.5714C11.8164 5.54006 11.6832 5.55155 11.5653 5.60394C11.0948 5.7989 10.7634 6.50698 10.8837 7.02779C10.8928 7.10951 10.9205 7.18833 10.9647 7.25873C11.009 7.32912 11.0687 7.38939 11.1397 7.43534C11.2107 7.48126 11.2914 7.51176 11.3759 7.52468C11.4606 7.53757 11.5471 7.5326 11.6294 7.51009C11.8781 7.42671 12.0934 7.2709 12.2453 7.06438C12.3972 6.85786 12.4781 6.61097 12.4768 6.35818Z" fill="#3A3B7B"/>
<path d="M13.9967 8.3002C13.9835 8.3941 13.9321 8.47915 13.8537 8.53664C13.7752 8.59412 13.6762 8.61936 13.5783 8.60677C13.4805 8.59419 13.3919 8.54481 13.332 8.46951C13.2721 8.39423 13.2458 8.29917 13.2589 8.20527C13.272 8.11138 13.3235 8.02633 13.4019 7.96883C13.4804 7.91133 13.5794 7.88612 13.6772 7.8987C13.7751 7.91129 13.8637 7.96065 13.9236 8.03595C13.9835 8.11125 14.0098 8.20631 13.9967 8.3002ZM13.7641 4.83936C13.8149 4.76484 13.8895 4.70809 13.9767 4.67758C14.0639 4.64707 14.159 4.64442 14.2479 4.67004C14.3383 4.69174 14.4181 4.74257 14.4741 4.81403C14.53 4.88549 14.5587 4.97323 14.5553 5.06256C14.5435 5.20585 14.5212 5.34816 14.4885 5.48842C14.4003 5.96305 14.3147 6.43765 14.2212 6.90714C14.1784 7.09443 14.1223 7.27401 14.0608 7.46384C14.0394 7.52319 14.0037 7.57682 13.9566 7.62034C13.9273 7.65308 13.8899 7.67819 13.8478 7.69335C13.8057 7.70854 13.7603 7.71327 13.7158 7.70713C13.6713 7.70099 13.6291 7.68418 13.5932 7.65826C13.5572 7.63231 13.5287 7.59809 13.5102 7.55877C13.4784 7.48822 13.4611 7.41242 13.4594 7.33558C13.4594 7.01745 13.4594 6.69678 13.4808 6.37608C13.5171 5.91842 13.5886 5.46395 13.6946 5.01638C13.7071 4.95642 13.7306 4.89908 13.7641 4.84706V4.83936Z" fill="#3A3B7B"/>
<path fill-rule="evenodd" clip-rule="evenodd" d="M1.7737 10.362C1.74214 10.4296 1.73348 10.505 1.7489 10.5775C1.75916 10.6732 1.7817 10.7672 1.816 10.8576C1.85882 10.9682 1.90673 11.0776 1.96581 11.2125C1.9794 11.2435 1.9936 11.2759 2.00846 11.31C2.08813 11.4927 2.1881 11.7261 2.32145 12.064C2.35919 12.16 2.39271 12.2568 2.42646 12.3542C2.44009 12.3936 2.45377 12.4331 2.46778 12.4727C2.51798 12.6134 2.60437 12.7399 2.71887 12.8401C2.7675 12.8952 2.83199 12.9353 2.90431 12.9554C2.97803 12.9758 3.05645 12.9745 3.12939 12.9516C3.20234 12.9287 3.2664 12.8853 3.31328 12.827C3.35923 12.7698 3.38656 12.7009 3.39187 12.6289C3.42168 12.4886 3.41151 12.3432 3.36237 12.2079C3.28438 11.9834 3.19554 11.7586 3.0931 11.5387L3.09263 11.5377C2.9241 11.1936 2.75279 10.8519 2.57338 10.5101L2.57203 10.5077C2.51951 10.4187 2.45125 10.3391 2.37033 10.2725C2.31779 10.213 2.24533 10.1729 2.1653 10.1591C2.08357 10.145 1.99927 10.1592 1.92746 10.1993C1.85953 10.2365 1.80568 10.2935 1.7737 10.362Z" fill="#3A3B7B"/>
<path fill-rule="evenodd" clip-rule="evenodd" d="M4.34758 9.51456C4.08333 9.44888 3.80736 9.43931 3.5389 9.48653C3.33096 9.50618 3.12645 9.55221 2.98444 9.6434C2.91222 9.68981 2.85382 9.7494 2.82134 9.82514C2.78868 9.9013 2.78451 9.98839 2.81127 10.0854C2.86014 10.2632 2.9236 10.436 2.98684 10.6083L2.99709 10.6362L2.99733 10.6368C3.18774 11.1373 3.37996 11.6361 3.57394 12.1331C3.59655 12.2115 3.62854 12.287 3.66925 12.3583L3.67001 12.3596C3.72379 12.4482 3.79277 12.5274 3.87403 12.5939C3.91467 12.6305 3.96493 12.6558 4.01942 12.6671C4.07446 12.6785 4.13169 12.6752 4.18488 12.6575C4.2381 12.6398 4.28522 12.6085 4.32113 12.5668C4.35646 12.5259 4.37959 12.4765 4.38809 12.424C4.42315 12.2814 4.41192 12.1319 4.35588 11.9955C4.33839 11.9497 4.32467 11.9028 4.31021 11.8534C4.30539 11.837 4.30051 11.8202 4.29535 11.8032C4.73936 11.6366 5.21179 11.4126 5.37792 10.8915C5.44298 10.7114 5.4484 10.5165 5.39344 10.3333C5.33843 10.1499 5.22556 9.9874 5.07039 9.86809C4.8592 9.70108 4.6125 9.5804 4.34758 9.51456ZM3.61512 10.1537C3.62386 10.1513 3.63267 10.149 3.6415 10.1469C3.93056 10.1033 4.22631 10.1614 4.47428 10.3105C4.58356 10.3835 4.62833 10.4645 4.63602 10.5425C4.64395 10.6228 4.61354 10.7098 4.55243 10.7935C4.43696 10.9515 4.22624 11.0779 4.0359 11.1015C3.89714 10.7948 3.75623 10.4757 3.61512 10.1537Z" fill="#3A3B7B"/>
<path d="M6.10923 8.95313C6.42392 8.81364 6.81372 8.78954 7.11875 8.88762C7.19557 8.9091 7.26222 8.95555 7.3073 9.01903C7.35208 9.08212 7.37275 9.15815 7.36585 9.23415C7.3654 9.28349 7.35278 9.33203 7.32904 9.37582C7.30487 9.4204 7.26988 9.45873 7.22702 9.4876C7.18416 9.51645 7.13469 9.535 7.08279 9.54163C7.03087 9.54827 6.97808 9.54281 6.92883 9.52572L6.92509 9.52442L6.92157 9.52264C6.89637 9.50998 6.86961 9.50045 6.84192 9.49425L6.84018 9.49388C6.6256 9.43917 6.4232 9.52981 6.34927 9.64118C6.31401 9.69427 6.30964 9.74788 6.339 9.79664C6.37045 9.84886 6.44759 9.90746 6.60368 9.94922C6.64661 9.96053 6.69061 9.97145 6.73524 9.98254C6.85867 10.0132 6.98694 10.0451 7.11097 10.0892L7.11144 10.0894C7.68365 10.2984 7.89672 10.7311 7.82378 11.1382C7.75162 11.5407 7.40136 11.9071 6.87463 11.9935C6.68297 12.0342 6.4835 12.0263 6.29599 11.9704C6.108 11.9144 5.93855 11.8121 5.80448 11.6738L5.80098 11.6702C5.75866 11.618 5.73019 11.5568 5.71757 11.4918C5.70595 11.4332 5.71207 11.3726 5.73516 11.3171C5.75812 11.262 5.79694 11.2143 5.84705 11.1796C5.89997 11.1402 5.96377 11.1166 6.03055 11.1116C6.0971 11.1067 6.1637 11.1206 6.22215 11.1516C6.28052 11.1786 6.33481 11.2132 6.38355 11.2542L6.38446 11.255C6.47068 11.3306 6.57499 11.3504 6.67501 11.3321C6.77649 11.3136 6.87192 11.2559 6.93329 11.1795C6.99427 11.1035 7.01875 11.0132 6.9897 10.9256C6.96046 10.8373 6.87257 10.7384 6.67945 10.6558C6.62896 10.6352 6.57662 10.6186 6.52217 10.6025C6.50749 10.5981 6.49256 10.5938 6.47745 10.5894C6.43719 10.5776 6.39576 10.5656 6.35514 10.5522C6.32717 10.5431 6.29942 10.5344 6.27193 10.5258C6.19681 10.5023 6.12358 10.4795 6.0531 10.4488C5.8997 10.3986 5.76717 10.3024 5.67524 10.1742C5.58293 10.0456 5.53648 9.89177 5.54281 9.73571C5.5433 9.3554 5.79286 9.09339 6.10923 8.95313Z" fill="#3A3B7B"/>
<path d="M10.0988 8.91265C10.0378 8.88405 9.97035 8.87047 9.90252 8.87313C9.83466 8.87582 9.76858 8.89465 9.71023 8.92799C9.65223 8.96108 9.60368 9.00743 9.56889 9.0629C9.53699 9.10962 9.51491 9.16186 9.5039 9.21671C9.4929 9.27153 9.49317 9.32786 9.50466 9.38254C9.51603 9.45283 9.52863 9.52117 9.54107 9.58857C9.56167 9.70012 9.58171 9.80915 9.59494 9.92032L9.59543 9.92314C9.62554 10.0975 9.64129 10.2738 9.64271 10.4505L9.64284 10.453C9.65313 10.6438 9.58539 10.8309 9.45414 10.9746L9.45205 10.9772C9.40935 11.0297 9.35225 11.0698 9.28713 11.093C9.22203 11.1161 9.15151 11.1215 9.08343 11.1084C9.01535 11.0952 8.95243 11.0642 8.90168 11.0187C8.85093 10.9733 8.81432 10.9149 8.79605 10.8507C8.75704 10.7152 8.73447 10.5758 8.72873 10.4354L8.79535 9.41738C8.79634 9.40409 8.79746 9.39044 8.7986 9.37667C8.80114 9.34575 8.80374 9.31426 8.80481 9.28489C8.80638 9.24167 8.80504 9.19722 8.79455 9.15514C8.78381 9.11215 8.76339 9.07124 8.72716 9.03641C8.6913 9.00193 8.64288 8.97649 8.58195 8.95917C8.47177 8.92856 8.3786 8.92953 8.30097 8.96115C8.2233 8.99277 8.17008 9.05148 8.13242 9.1193C8.09505 9.18655 8.07105 9.26616 8.05289 9.3459C8.03942 9.40508 8.02859 9.4672 8.0183 9.52632C8.01474 9.5467 8.01126 9.5667 8.00774 9.58613L8.00765 9.5867C7.9526 9.91097 7.93621 10.2402 7.95881 10.568C7.96302 10.7452 8.00151 10.9201 8.07235 11.0837C8.15226 11.2949 8.29701 11.4778 8.48748 11.6084C8.67836 11.7393 8.90614 11.8114 9.14066 11.8152C9.37519 11.819 9.60538 11.7543 9.80077 11.6298C9.99584 11.5054 10.147 11.3271 10.2343 11.1185C10.3564 10.8528 10.4138 10.5638 10.4019 10.2736C10.3947 10.0618 10.3827 9.84828 10.3708 9.63586C10.3649 9.53167 10.3591 9.4277 10.3538 9.32436C10.3512 9.22074 10.3156 9.12038 10.2518 9.03674C10.2123 8.98386 10.1597 8.94121 10.0988 8.91265Z" fill="#3A3B7B"/>
<path d="M12.2587 10.509C12.2525 10.5166 12.246 10.5244 12.2391 10.5325C12.1895 10.2577 12.1435 9.98299 12.0974 9.70787C12.0809 9.60915 12.0643 9.51002 12.0476 9.41118L12.0457 9.40015L12.0396 9.39062C12.0281 9.37269 12.027 9.35511 12.027 9.31761V9.31328L12.0263 9.30899C12.0138 9.23155 11.9773 9.15948 11.9216 9.10223C11.866 9.04513 11.7938 9.00538 11.7144 8.98813C11.6351 8.96936 11.5518 8.9735 11.4749 9.00004C11.3982 9.02651 11.3314 9.07408 11.2828 9.1368C11.2423 9.18492 11.2092 9.23831 11.1843 9.29534C11.1279 9.41822 11.0711 9.5414 11.014 9.66491L11.0131 9.66705C10.8707 9.9754 10.7274 10.2858 10.5882 10.5987L10.5878 10.5997C10.5023 10.8026 10.4318 11.0163 10.3615 11.2294C10.3475 11.2719 10.3335 11.3145 10.3193 11.3569C10.294 11.4241 10.2829 11.4955 10.2867 11.5669C10.2821 11.6309 10.298 11.6946 10.3324 11.7496C10.3674 11.8057 10.42 11.8499 10.4825 11.8759C10.5488 11.9038 10.623 11.9097 10.6932 11.8927C10.7633 11.8757 10.8255 11.8369 10.8701 11.7824C10.927 11.7151 10.976 11.6418 11.016 11.5641C11.1338 11.3327 11.2465 11.0984 11.3587 10.8652C11.4021 10.7749 11.4442 10.6941 11.4922 10.6061C11.4955 10.617 11.4989 10.6276 11.5023 10.6382C11.5526 10.8506 11.6375 11.0541 11.7538 11.2412C11.7758 11.2809 11.8065 11.3155 11.8437 11.3428C11.8814 11.3704 11.9248 11.3897 11.9711 11.3996C12.0173 11.4094 12.0652 11.4094 12.1115 11.3997C12.1577 11.39 12.2013 11.3706 12.239 11.3431L12.3136 11.2895L12.8924 10.8216L12.8582 11.0309C12.8112 11.3187 12.7646 11.6041 12.7151 11.8896C12.6826 12.0161 12.6827 12.1483 12.7152 12.2748C12.7293 12.346 12.7651 12.4115 12.8182 12.463C12.8717 12.515 12.9403 12.5503 13.015 12.5644C13.0897 12.5784 13.1671 12.5706 13.2371 12.542C13.3061 12.5137 13.3648 12.4665 13.4058 12.4063C13.5012 12.2927 13.5606 12.1551 13.577 12.0099C13.6015 11.8049 13.6293 11.5971 13.6571 11.3894C13.689 11.15 13.721 10.9106 13.748 10.6758L13.7481 10.6751C13.7741 10.4181 13.7867 10.16 13.7858 9.90184C13.7915 9.82025 13.7704 9.73896 13.7253 9.66949C13.68 9.59978 13.613 9.54558 13.5338 9.51458C13.4514 9.47862 13.3591 9.469 13.2706 9.48718C13.1826 9.50522 13.103 9.54972 13.0433 9.61417C12.9366 9.70895 12.8364 9.81037 12.7435 9.91777L12.7429 9.9185C12.6414 10.0398 12.5407 10.1635 12.4406 10.2864C12.3797 10.3611 12.319 10.4356 12.2587 10.509Z" fill="#3A3B7B"/>
</g>
<defs>
<clipPath id="clip0_212_1131">
<rect width="15.6917" height="9.68213" fill="white" transform="translate(0.33374 3.2876)"/>
</clipPath>
</defs>
</svg>
