<svg width="17" height="17" viewBox="0 0 17 17" fill="none" xmlns="http://www.w3.org/2000/svg">
<rect width="16.0256" height="16.0256" rx="2.67093" fill="#F5F7FA"/>
<g clip-path="url(#clip0_212_1612)">
<path d="M12.833 3.90304C12.833 4.05862 12.9607 4.18474 13.1182 4.18474H13.4034C13.5609 4.18474 13.6885 4.05862 13.6885 3.90304C13.6885 3.74746 13.5609 3.62134 13.4034 3.62134H13.1182C12.9607 3.62134 12.833 3.74746 12.833 3.90304Z" fill="#212326"/>
<path d="M4.56284 12.6357H5.94819L5.54488 12.2373C5.43793 12.1317 5.29285 12.0723 5.14159 12.0723H4.56284C2.35785 12.0723 0.570355 10.3066 0.570355 8.12854C0.570355 5.95043 2.35785 4.18474 4.56284 4.18474H9.12569C11.3307 4.18474 13.1182 5.95043 13.1182 8.12854C13.1182 10.3066 11.3307 12.0723 9.12569 12.0723H7.41882C7.19191 12.0723 6.97431 11.9833 6.81385 11.8248L6.34137 11.3581C6.07397 11.0939 5.71127 10.9455 5.3331 10.9455H4.56284C2.98784 10.9455 1.71107 9.68433 1.71107 8.12854C1.71107 6.57274 2.98784 5.31154 4.56284 5.31154H9.12569C10.7007 5.31154 11.9775 6.57274 11.9775 8.12854C11.9775 9.68433 10.7007 10.9455 9.12569 10.9455H8.02971C7.8028 10.9455 7.5852 10.8565 7.42475 10.698L6.95224 10.2313C6.68484 9.96714 6.32216 9.81874 5.94399 9.81874H4.56284C3.61786 9.81874 2.85178 9.062 2.85178 8.12854C2.85178 7.19507 3.61786 6.43834 4.56284 6.43834H9.12569C10.0707 6.43834 10.8368 7.19507 10.8368 8.12854C10.8368 9.05062 10.0892 9.80026 9.16018 9.8184L9.16 9.81874H8.74266C8.51575 9.81874 8.29815 9.7297 8.13769 9.57122L7.66519 9.10448C7.44578 8.88773 7.16223 8.74893 6.85859 8.70609L6.84426 8.69194H4.56284C4.24785 8.69194 3.99249 8.43969 3.99249 8.12854C3.99249 7.81738 4.24785 7.56514 4.56284 7.56514H9.12569C9.44068 7.56514 9.69604 7.81738 9.69604 8.12854C9.69604 8.43969 9.44068 8.69194 9.12569 8.69194H7.98498L8.38828 9.09033C8.49524 9.19598 8.64031 9.25534 8.79157 9.25534H9.12569C9.75568 9.25534 10.2664 8.75084 10.2664 8.12854C10.2664 7.50623 9.75568 7.00174 9.12569 7.00174H4.56284C3.93285 7.00174 3.42213 7.50623 3.42213 8.12854C3.42213 8.75084 3.93285 9.25534 4.56284 9.25534H6.65694C6.88385 9.25534 7.10145 9.34438 7.2619 9.50285L7.73441 9.96959C8.00181 10.2337 8.36449 10.3821 8.74266 10.3821H9.26828V10.3778C10.4618 10.3051 11.4071 9.32585 11.4071 8.12854C11.4071 6.88392 10.3857 5.87494 9.12569 5.87494H4.56284C3.30286 5.87494 2.28142 6.88392 2.28142 8.12854C2.28142 9.37318 3.30286 10.3821 4.56284 10.3821H5.94399C6.1709 10.3821 6.38851 10.4712 6.54896 10.6296L7.02146 11.0964C7.28887 11.3605 7.65155 11.5089 8.02971 11.5089H9.12569C11.0157 11.5089 12.5478 9.99549 12.5478 8.12854C12.5478 6.26159 11.0157 4.74814 9.12569 4.74814H4.56284C2.67285 4.74814 1.14071 6.26159 1.14071 8.12854C1.14071 9.99549 2.67285 11.5089 4.56284 11.5089H5.3331C5.56001 11.5089 5.77761 11.598 5.93806 11.7564L6.41057 12.2232C6.67797 12.4873 7.04065 12.6357 7.41882 12.6357H9.12569C11.6457 12.6357 13.6885 10.6178 13.6885 8.12854C13.6885 5.63928 11.6457 3.62134 9.12569 3.62134L4.56284 3.62134C2.04285 3.62134 -2.20304e-07 5.63928 0 8.12854C2.20304e-07 10.6178 2.04286 12.6357 4.56284 12.6357Z" fill="#212326"/>
</g>
<defs>
<clipPath id="clip0_212_1612">
<rect width="13.6885" height="9.0144" fill="white" transform="translate(0 3.62134)"/>
</clipPath>
</defs>
</svg>
