<svg width="17" height="17" viewBox="0 0 17 17" fill="none" xmlns="http://www.w3.org/2000/svg">
<rect width="16.0256" height="16.0256" rx="2.67093" fill="#F5F7FA"/>
<g clip-path="url(#clip0_212_1596)">
<path d="M14.6889 4.47758C14.6889 4.48887 14.6889 4.50298 14.686 4.51145C14.6713 4.62152 14.6713 4.73159 14.6801 4.84448C14.686 4.8727 14.6918 4.90093 14.7154 4.92351C14.7536 4.96584 14.8124 4.95737 14.8359 4.90657C14.8477 4.88117 14.8477 4.85577 14.8418 4.83037C14.8124 4.72312 14.8065 4.61023 14.8036 4.50015C14.8036 4.49451 14.8036 4.48604 14.8036 4.47758C14.8359 4.47475 14.8654 4.47193 14.8918 4.47193C14.9124 4.46911 14.9301 4.46629 14.9448 4.45782C14.9888 4.43524 14.9888 4.38726 14.9418 4.36468C14.9242 4.35622 14.9006 4.35339 14.8801 4.35339C14.8065 4.35622 14.733 4.35622 14.6595 4.35622C14.6331 4.35622 14.6066 4.35904 14.5801 4.36186C14.5654 4.36468 14.5478 4.36468 14.536 4.37315C14.5154 4.38162 14.5037 4.39573 14.5037 4.41548C14.5066 4.43524 14.5154 4.44653 14.536 4.455C14.5478 4.46347 14.5625 4.46629 14.5772 4.46629C14.6124 4.46911 14.6507 4.47475 14.6889 4.47758ZM15.4976 4.6074C15.4976 4.61023 15.5005 4.61305 15.5005 4.61305C15.5123 4.68925 15.5241 4.76263 15.5329 4.83601C15.5358 4.86141 15.5388 4.88399 15.5564 4.90375C15.5946 4.95173 15.6534 4.94608 15.6799 4.89528C15.6917 4.86988 15.6946 4.84448 15.6887 4.81626C15.6711 4.73159 15.6622 4.64692 15.6446 4.56507C15.6328 4.51427 15.6182 4.46629 15.6034 4.42113C15.5946 4.39291 15.574 4.37315 15.5388 4.37033C15.5035 4.36468 15.477 4.38162 15.4623 4.40702C15.4446 4.4296 15.4299 4.45218 15.4182 4.47758C15.3976 4.52273 15.38 4.56789 15.3564 4.61023C15.3535 4.62152 15.3505 4.62998 15.3447 4.63845C15.3417 4.6328 15.3388 4.62998 15.3388 4.62998C15.3006 4.55942 15.2653 4.48887 15.2271 4.42113C15.2212 4.41548 15.2182 4.40984 15.2153 4.4042C15.1976 4.3788 15.1771 4.36468 15.1447 4.36468C15.1153 4.36751 15.0918 4.38444 15.0771 4.40984C15.0712 4.42113 15.0712 4.4296 15.0683 4.44089C15.0565 4.5312 15.0418 4.62152 15.03 4.71183C15.0241 4.76263 15.0212 4.81343 15.0212 4.86424C15.0183 4.87552 15.0212 4.88964 15.0271 4.90093C15.033 4.9235 15.0506 4.93762 15.0741 4.94044C15.1035 4.94326 15.1241 4.93479 15.1329 4.91222C15.1418 4.89528 15.1447 4.88117 15.1476 4.86706C15.1594 4.81626 15.1682 4.76828 15.1771 4.7203C15.1829 4.69207 15.1859 4.6695 15.1947 4.63845C15.2006 4.64974 15.2064 4.65821 15.2123 4.66667C15.2388 4.70054 15.2653 4.73441 15.2976 4.76263C15.33 4.78521 15.3564 4.78239 15.3829 4.75699C15.3888 4.75134 15.3917 4.74852 15.3976 4.74287C15.4241 4.70336 15.4564 4.66385 15.4829 4.62434C15.4888 4.61869 15.4917 4.61305 15.4976 4.6074Z" fill="#3A3B7B"/>
<path d="M8.72217 4.53311C8.70173 4.58675 8.69783 4.62539 8.70727 4.65751C8.71769 4.70118 8.74475 4.71548 8.78147 4.70437C9.12686 4.6224 9.88426 4.85508 10.1647 4.91993C10.2308 4.93355 10.2846 4.85161 10.2395 4.77815C10.1736 4.70701 9.41656 4.40242 9.12769 4.38582C9.01447 4.37967 8.81204 4.35181 8.72217 4.53311Z" fill="#3A3B7B"/>
<path d="M11.6822 3.54714C11.719 3.56753 11.7396 3.58698 11.7497 3.60871C11.7648 3.63722 11.7569 3.65695 11.7314 3.66701C11.5031 3.77396 11.1993 4.23439 11.0767 4.39319C11.0469 4.42972 10.9784 4.40849 10.968 4.34842C10.9701 4.2805 11.2395 3.78083 11.3898 3.64473C11.4488 3.5916 11.5464 3.48734 11.6822 3.54714Z" fill="#3A3B7B"/>
<path d="M9.86389 3.32044C9.90812 3.28845 9.95407 3.27724 9.97754 3.29803C10.322 3.58078 10.5047 4.02854 10.6178 4.43845C10.6221 4.448 10.6223 4.46171 10.6189 4.47601C10.6175 4.48822 10.6082 4.50113 10.5934 4.51112C10.5777 4.52215 10.5641 4.52551 10.5577 4.516C10.4067 4.31891 9.54441 3.55207 9.86389 3.32044Z" fill="#3A3B7B"/>
<path d="M2.56918 8.22263C2.65175 8.16363 2.7415 8.11452 2.83648 8.07641C2.93586 8.04914 3.04177 8.05365 3.13823 8.0893C3.23467 8.12495 3.31642 8.18975 3.37108 8.27394C3.41997 8.35791 3.43909 8.45487 3.42559 8.55019C3.4121 8.64549 3.36671 8.73402 3.29623 8.80243C3.2416 8.85789 3.17957 8.90619 3.1118 8.9461C2.80976 9.13339 2.50503 9.31039 2.20031 9.49768C2.13796 9.54455 2.07181 9.5866 2.00251 9.62339C1.89709 9.67385 1.77661 9.68736 1.66191 9.66159C1.5472 9.63584 1.44549 9.5724 1.37435 9.48229C1.32117 9.41848 1.27629 9.3487 1.2407 9.27448C0.952019 8.69212 0.652646 8.11232 0.374653 7.51968C0.246349 7.26315 0.142103 6.96811 0.040529 6.68334C-0.00341645 6.60061 -0.011998 6.50469 0.0166116 6.41596C0.0452213 6.32724 0.108765 6.25273 0.193726 6.20828C0.278687 6.16383 0.378361 6.15296 0.471552 6.17796C0.564743 6.20296 0.644098 6.26186 0.692738 6.34214C0.842247 6.53283 0.974593 6.73539 1.08834 6.9476C1.37703 7.46069 1.65235 7.97377 1.93034 8.47148C1.94652 8.49899 1.96437 8.52552 1.9838 8.55101C2.19303 8.46657 2.38983 8.35617 2.56918 8.22263Z" fill="#3A3B7B"/>
<path d="M5.55396 8.04364C4.89374 8.78505 3.78711 8.59776 3.23113 7.64341C2.83552 6.96613 2.76603 5.84758 3.62674 5.14207C3.81054 4.99437 4.03031 4.89375 4.26558 4.84961C4.55404 4.80992 4.84819 4.85876 5.10598 4.98915C5.36377 5.11955 5.57203 5.32482 5.70099 5.57564C6.17143 6.3966 6.1046 7.4433 5.55396 8.04364ZM5.28666 6.3145C5.21652 6.11276 5.07581 5.94053 4.88838 5.82705C4.78233 5.7545 4.65345 5.71922 4.52348 5.72717C4.39349 5.73511 4.27033 5.78579 4.1747 5.87066C3.79247 6.19649 3.71226 6.9687 3.99025 7.42792C4.0257 7.5028 4.07772 7.56935 4.14276 7.62291C4.20779 7.67647 4.28423 7.71574 4.36672 7.73797C4.44921 7.76022 4.53577 7.76488 4.62034 7.75166C4.70492 7.73841 4.78544 7.7076 4.85633 7.66137C5.06352 7.50718 5.21553 7.29488 5.29121 7.05397C5.36691 6.81304 5.36252 6.55547 5.27866 6.31707L5.28666 6.3145Z" fill="#3A3B7B"/>
<path d="M8.24826 6.63781C8.18068 6.65177 8.11085 6.6526 8.0429 6.64026C7.97498 6.62791 7.91029 6.60267 7.85268 6.56599C7.80226 6.53831 7.75886 6.50026 7.7256 6.45456C7.69235 6.40885 7.67007 6.35666 7.66036 6.30169C7.65063 6.24674 7.65375 6.19041 7.66942 6.13674C7.68511 6.08307 7.71302 6.03341 7.75111 5.99131C7.81746 5.90673 7.91165 5.84617 8.0184 5.81943C8.29711 5.7418 8.58402 5.69447 8.87376 5.67834C8.93742 5.67123 9.00192 5.6764 9.06345 5.69354C9.12501 5.71071 9.18235 5.73947 9.23216 5.7782C9.28195 5.8169 9.32319 5.86478 9.35346 5.919C9.3837 5.97322 9.40237 6.0327 9.40835 6.09394C9.49188 6.39475 9.50102 6.71014 9.43507 7.01496C9.19452 8.00009 8.36589 8.33872 7.43568 8.02317C7.17457 7.93881 6.94563 7.7816 6.77813 7.57166C6.55472 7.31882 6.39633 7.01918 6.31569 6.69683C6.25037 6.40978 6.25752 6.11192 6.33659 5.82808C6.41563 5.54424 6.56427 5.28266 6.7701 5.06518C6.96544 4.82881 7.21898 4.64279 7.50786 4.52387C7.6904 4.4273 7.90401 4.39984 8.10661 4.4469C8.15257 4.45911 8.19428 4.4829 8.22744 4.5158C8.26059 4.5487 8.28397 4.58951 8.29516 4.63401C8.30635 4.6785 8.30491 4.72506 8.29104 4.76885C8.27714 4.81263 8.25131 4.85206 8.21621 4.88303C8.14945 4.94103 8.07693 4.99259 7.99968 5.03696C7.76204 5.18221 7.55525 5.36937 7.39024 5.58854C7.28208 5.73036 7.20759 5.89321 7.17204 6.06562C7.13646 6.23803 7.1407 6.41583 7.18443 6.58652C7.24505 6.81924 7.37957 7.02814 7.56933 7.18426C8.15739 7.69737 8.92187 7.20222 8.78822 6.50185C8.5931 6.54803 8.42202 6.59678 8.24826 6.63781Z" fill="#3A3B7B"/>
<path d="M11.841 8.08474C10.9722 8.59785 9.98324 8.08474 9.76672 7.00726C9.60902 6.23761 9.90839 5.16011 10.9562 4.74963C11.1792 4.66418 11.421 4.63417 11.6592 4.6624C11.9454 4.7127 12.208 4.84794 12.4099 5.04908C12.6118 5.25022 12.7429 5.5071 12.7845 5.78352C12.9609 6.69939 12.56 7.67684 11.841 8.08474ZM12.143 6.35818C12.1428 6.14506 12.0642 5.93883 11.9212 5.77582C11.8447 5.67499 11.7342 5.60275 11.6084 5.5714C11.4826 5.54006 11.3495 5.55155 11.2315 5.60394C10.7611 5.7989 10.4296 6.50698 10.5499 7.02779C10.5591 7.10951 10.5868 7.18833 10.631 7.25873C10.6752 7.32912 10.7349 7.38939 10.806 7.43534C10.877 7.48126 10.9576 7.51176 11.0422 7.52468C11.1268 7.53757 11.2133 7.5326 11.2957 7.51009C11.5443 7.42671 11.7597 7.2709 11.9116 7.06438C12.0635 6.85786 12.1444 6.61097 12.143 6.35818Z" fill="#3A3B7B"/>
<path d="M13.6629 8.3002C13.6498 8.3941 13.5984 8.47915 13.5199 8.53664C13.4415 8.59412 13.3424 8.61936 13.2446 8.60677C13.1468 8.59419 13.0582 8.54481 12.9983 8.46951C12.9383 8.39423 12.9121 8.29917 12.9252 8.20527C12.9383 8.11138 12.9897 8.02633 13.0682 7.96883C13.1466 7.91133 13.2457 7.88612 13.3435 7.8987C13.4413 7.91129 13.5299 7.96065 13.5899 8.03595C13.6498 8.11125 13.676 8.20631 13.6629 8.3002ZM13.4304 4.83936C13.4812 4.76484 13.5558 4.70809 13.643 4.67758C13.7302 4.64707 13.8253 4.64442 13.9142 4.67004C14.0045 4.69174 14.0844 4.74257 14.1403 4.81403C14.1963 4.88549 14.225 4.97323 14.2216 5.06256C14.2098 5.20585 14.1875 5.34816 14.1548 5.48842C14.0665 5.96305 13.981 6.43765 13.8875 6.90714C13.8447 7.09443 13.7886 7.27401 13.7271 7.46384C13.7057 7.52319 13.67 7.57682 13.6228 7.62034C13.5935 7.65308 13.5561 7.67819 13.514 7.69335C13.4719 7.70854 13.4265 7.71327 13.382 7.70713C13.3375 7.70099 13.2953 7.68418 13.2594 7.65826C13.2235 7.63231 13.1949 7.59809 13.1764 7.55877C13.1447 7.48822 13.1274 7.41242 13.1256 7.33558C13.1256 7.01745 13.1256 6.69678 13.147 6.37608C13.1834 5.91842 13.2548 5.46395 13.3609 5.01638C13.3734 4.95642 13.3969 4.89908 13.4304 4.84706V4.83936Z" fill="#3A3B7B"/>
<path fill-rule="evenodd" clip-rule="evenodd" d="M1.43996 10.3617C1.4084 10.4294 1.39974 10.5047 1.41516 10.5773C1.42542 10.6729 1.44796 10.767 1.48226 10.8574C1.52508 10.968 1.57299 11.0774 1.63207 11.2122C1.64566 11.2433 1.65986 11.2757 1.67472 11.3097C1.75439 11.4924 1.85436 11.7259 1.98771 12.0638C2.02545 12.1598 2.05897 12.2565 2.09272 12.354C2.10635 12.3934 2.12003 12.4329 2.13404 12.4724C2.18424 12.6132 2.27063 12.7396 2.38513 12.8398C2.43376 12.8949 2.49825 12.935 2.57056 12.9551C2.64429 12.9756 2.72271 12.9743 2.79565 12.9514C2.8686 12.9285 2.93266 12.8851 2.97954 12.8267C3.02549 12.7695 3.05282 12.7006 3.05813 12.6286C3.08794 12.4883 3.07777 12.3429 3.02863 12.2077C2.95064 11.9832 2.8618 11.7583 2.75936 11.5384L2.75889 11.5375C2.59036 11.1934 2.41905 10.8517 2.23964 10.5099L2.23829 10.5075C2.18577 10.4184 2.11751 10.3388 2.03659 10.2722C1.98405 10.2128 1.91159 10.1727 1.83156 10.1589C1.74982 10.1448 1.66553 10.159 1.59372 10.199C1.52579 10.2362 1.47194 10.2932 1.43996 10.3617Z" fill="#3A3B7B"/>
<path fill-rule="evenodd" clip-rule="evenodd" d="M4.01384 9.51456C3.74959 9.44888 3.47362 9.43931 3.20516 9.48653C2.99722 9.50618 2.79271 9.55221 2.6507 9.6434C2.57848 9.68981 2.52008 9.7494 2.4876 9.82514C2.45494 9.9013 2.45077 9.98839 2.47753 10.0854C2.5264 10.2632 2.58986 10.436 2.6531 10.6083L2.66334 10.6362L2.66359 10.6368C2.854 11.1373 3.04622 11.6361 3.2402 12.1331C3.26281 12.2115 3.2948 12.287 3.33551 12.3583L3.33627 12.3596C3.39005 12.4482 3.45903 12.5274 3.54029 12.5939C3.58093 12.6305 3.63119 12.6558 3.68568 12.6671C3.74072 12.6785 3.79795 12.6752 3.85114 12.6575C3.90436 12.6398 3.95148 12.6085 3.98739 12.5668C4.02272 12.5259 4.04585 12.4765 4.05435 12.424C4.08941 12.2814 4.07818 12.1319 4.02214 11.9955C4.00465 11.9497 3.99093 11.9028 3.97647 11.8534C3.97165 11.837 3.96677 11.8202 3.96161 11.8032C4.40562 11.6366 4.87805 11.4126 5.04418 10.8915C5.10924 10.7114 5.11466 10.5165 5.0597 10.3333C5.00469 10.1499 4.89182 9.9874 4.73665 9.86809C4.52546 9.70108 4.27876 9.5804 4.01384 9.51456ZM3.28137 10.1537C3.29012 10.1513 3.29893 10.149 3.30776 10.1469C3.59682 10.1033 3.89257 10.1614 4.14054 10.3105C4.24982 10.3835 4.29459 10.4645 4.30228 10.5425C4.31021 10.6228 4.27979 10.7098 4.21869 10.7935C4.10322 10.9515 3.8925 11.0779 3.70216 11.1015C3.5634 10.7948 3.42249 10.4757 3.28137 10.1537Z" fill="#3A3B7B"/>
<path d="M5.77549 8.95313C6.09018 8.81364 6.47998 8.78954 6.78501 8.88762C6.86183 8.9091 6.92848 8.95555 6.97356 9.01903C7.01834 9.08212 7.03901 9.15815 7.03211 9.23415C7.03166 9.28349 7.01904 9.33203 6.9953 9.37582C6.97113 9.4204 6.93614 9.45873 6.89328 9.4876C6.85042 9.51645 6.80095 9.535 6.74905 9.54163C6.69713 9.54827 6.64434 9.54281 6.59509 9.52572L6.59135 9.52442L6.58783 9.52264C6.56263 9.50998 6.53587 9.50045 6.50818 9.49425L6.50643 9.49388C6.29186 9.43917 6.08946 9.52981 6.01553 9.64118C5.98027 9.69427 5.9759 9.74788 6.00526 9.79664C6.03671 9.84886 6.11385 9.90746 6.26994 9.94922C6.31287 9.96053 6.35687 9.97145 6.4015 9.98254C6.52493 10.0132 6.6532 10.0451 6.77723 10.0892L6.7777 10.0894C7.34991 10.2984 7.56298 10.7311 7.49004 11.1382C7.41788 11.5407 7.06762 11.9071 6.54089 11.9935C6.34923 12.0342 6.14976 12.0263 5.96225 11.9704C5.77426 11.9144 5.60481 11.8121 5.47074 11.6738L5.46724 11.6702C5.42492 11.618 5.39645 11.5568 5.38383 11.4918C5.37221 11.4332 5.37833 11.3726 5.40142 11.3171C5.42438 11.262 5.4632 11.2143 5.51331 11.1796C5.56623 11.1402 5.63003 11.1166 5.69681 11.1116C5.76336 11.1067 5.82996 11.1206 5.8884 11.1516C5.94678 11.1786 6.00107 11.2132 6.04981 11.2542L6.05072 11.255C6.13694 11.3306 6.24124 11.3504 6.34127 11.3321C6.44275 11.3136 6.53818 11.2559 6.59955 11.1795C6.66053 11.1035 6.68501 11.0132 6.65596 10.9256C6.62672 10.8373 6.53883 10.7384 6.34571 10.6558C6.29522 10.6352 6.24288 10.6186 6.18843 10.6025C6.17375 10.5981 6.15882 10.5938 6.14371 10.5894C6.10345 10.5776 6.06202 10.5656 6.0214 10.5522C5.99343 10.5431 5.96568 10.5344 5.93819 10.5258C5.86307 10.5023 5.78984 10.4795 5.71936 10.4488C5.56596 10.3986 5.43343 10.3024 5.3415 10.1742C5.24919 10.0456 5.20274 9.89177 5.20907 9.73571C5.20956 9.3554 5.45912 9.09339 5.77549 8.95313Z" fill="#3A3B7B"/>
<path d="M9.7651 8.91265C9.70408 8.88405 9.63661 8.87047 9.56878 8.87313C9.50092 8.87582 9.43484 8.89465 9.37649 8.92799C9.31849 8.96108 9.26994 9.00743 9.23515 9.0629C9.20325 9.10962 9.18117 9.16186 9.17016 9.21671C9.15916 9.27153 9.15942 9.32786 9.17092 9.38254C9.18229 9.45283 9.19489 9.52117 9.20733 9.58857C9.22793 9.70012 9.24797 9.80915 9.2612 9.92032L9.26169 9.92314C9.2918 10.0975 9.30755 10.2738 9.30897 10.4505L9.3091 10.453C9.31939 10.6438 9.25165 10.8309 9.1204 10.9746L9.11831 10.9772C9.07561 11.0297 9.01851 11.0698 8.95339 11.093C8.88829 11.1161 8.81777 11.1215 8.74969 11.1084C8.68161 11.0952 8.61869 11.0642 8.56794 11.0187C8.51718 10.9733 8.48058 10.9149 8.46231 10.8507C8.4233 10.7152 8.40073 10.5758 8.39499 10.4354L8.46161 9.41738C8.4626 9.40409 8.46372 9.39044 8.46486 9.37667C8.4674 9.34575 8.47 9.31426 8.47107 9.28489C8.47264 9.24167 8.4713 9.19722 8.46081 9.15514C8.45007 9.11215 8.42965 9.07124 8.39342 9.03641C8.35756 9.00193 8.30914 8.97649 8.24821 8.95917C8.13803 8.92856 8.04486 8.92953 7.96723 8.96115C7.88956 8.99277 7.83634 9.05148 7.79868 9.1193C7.76131 9.18655 7.73731 9.26616 7.71915 9.3459C7.70568 9.40508 7.69485 9.4672 7.68456 9.52632C7.681 9.5467 7.67752 9.5667 7.674 9.58613L7.67391 9.5867C7.61886 9.91097 7.60247 10.2402 7.62507 10.568C7.62928 10.7452 7.66777 10.9201 7.73861 11.0837C7.81852 11.2949 7.96327 11.4778 8.15374 11.6084C8.34462 11.7393 8.5724 11.8114 8.80692 11.8152C9.04144 11.819 9.27164 11.7543 9.46703 11.6298C9.6621 11.5054 9.81328 11.3271 9.90057 11.1185C10.0227 10.8528 10.08 10.5638 10.0682 10.2736C10.061 10.0618 10.049 9.84828 10.037 9.63586C10.0312 9.53167 10.0253 9.4277 10.0201 9.32436C10.0174 9.22074 9.98183 9.12038 9.91803 9.03674C9.87855 8.98386 9.82601 8.94121 9.7651 8.91265Z" fill="#3A3B7B"/>
<path d="M11.9249 10.5089C11.9187 10.5164 11.9122 10.5243 11.9054 10.5324C11.8558 10.2576 11.8098 9.98287 11.7637 9.70774C11.7472 9.60903 11.7306 9.5099 11.7139 9.41105L11.712 9.40003L11.7059 9.3905C11.6944 9.37257 11.6933 9.35499 11.6933 9.31749V9.31315L11.6926 9.30886C11.6801 9.23143 11.6436 9.15936 11.5879 9.10211C11.5323 9.045 11.4601 9.00526 11.3806 8.98801C11.3013 8.96924 11.218 8.97338 11.1412 8.99992C11.0645 9.02639 10.9977 9.07396 10.949 9.13668C10.9086 9.1848 10.8754 9.23818 10.8506 9.29522C10.7942 9.4181 10.7373 9.54128 10.6803 9.66479L10.6793 9.66693C10.537 9.97528 10.3936 10.2857 10.2545 10.5986L10.254 10.5996C10.1686 10.8024 10.0981 11.0162 10.0278 11.2293C10.0138 11.2718 9.99974 11.3143 9.98559 11.3567C9.96021 11.424 9.94912 11.4954 9.95293 11.5668C9.94831 11.6307 9.96425 11.6945 9.99864 11.7495C10.0337 11.8056 10.0862 11.8498 10.1488 11.8758C10.2151 11.9037 10.2892 11.9096 10.3595 11.8926C10.4295 11.8756 10.4918 11.8368 10.5363 11.7822C10.5933 11.715 10.6423 11.6417 10.6822 11.564C10.8001 11.3326 10.9128 11.0983 11.0249 10.865C11.0683 10.7748 11.1105 10.694 11.1585 10.606C11.1618 10.6169 11.1651 10.6275 11.1686 10.6381C11.2189 10.8505 11.3037 11.054 11.4201 11.2411C11.4421 11.2807 11.4727 11.3154 11.51 11.3426C11.5476 11.3702 11.5911 11.3896 11.6373 11.3994C11.6836 11.4093 11.7315 11.4093 11.7778 11.3996C11.824 11.3898 11.8676 11.3705 11.9052 11.343L11.9798 11.2894L12.5587 10.8214L12.5245 11.0308C12.4775 11.3186 12.4309 11.604 12.3813 11.8895C12.3489 12.016 12.3489 12.1482 12.3814 12.2747C12.3955 12.3458 12.4314 12.4114 12.4845 12.4629C12.538 12.5149 12.6066 12.5502 12.6812 12.5642C12.7559 12.5783 12.8333 12.5705 12.9033 12.5418C12.9723 12.5136 13.031 12.4664 13.072 12.4062C13.1675 12.2925 13.2269 12.1549 13.2432 12.0098C13.2678 11.8048 13.2955 11.597 13.3233 11.3893C13.3553 11.1498 13.3873 10.9105 13.4143 10.6757L13.4144 10.675C13.4404 10.418 13.453 10.1599 13.4521 9.90172C13.4578 9.82012 13.4366 9.73884 13.3915 9.66937C13.3463 9.59966 13.2792 9.54546 13.2 9.51445C13.1176 9.4785 13.0254 9.46888 12.9368 9.48706C12.8489 9.5051 12.7693 9.5496 12.7096 9.61405C12.6028 9.70882 12.5027 9.81024 12.4097 9.91765L12.4091 9.91838C12.3077 10.0397 12.2069 10.1634 12.1068 10.2863C12.046 10.361 11.9853 10.4355 11.9249 10.5089Z" fill="#3A3B7B"/>
</g>
<defs>
<clipPath id="clip0_212_1596">
<rect width="15.6917" height="9.68213" fill="white" transform="translate(0 3.28748)"/>
</clipPath>
</defs>
</svg>
