<svg width="17" height="17" viewBox="0 0 17 17" fill="none" xmlns="http://www.w3.org/2000/svg">
<rect width="16.0256" height="16.0256" rx="2.67093" fill="#F5F7FA"/>
<g clip-path="url(#clip0_212_1589)">
<path fill-rule="evenodd" clip-rule="evenodd" d="M3.37127 4.66121L0.0373535 7.96161C0.704198 8.62176 1.46597 9.17812 2.29651 9.61338C2.52607 10.2162 2.88591 10.7815 3.37602 11.2667C5.21993 13.0921 8.20947 13.0921 10.0533 11.2667C10.5435 10.7815 10.9033 10.2162 11.1329 9.61335C11.9634 9.17812 12.7252 8.62176 13.392 7.96161L10.0608 4.66389C10.0583 4.66143 10.0559 4.65896 10.0533 4.65649C8.20947 2.83114 5.21993 2.83114 3.37602 4.65649C3.37444 4.65807 3.37285 4.65964 3.37127 4.66121ZM9.73434 10.2088C8.76279 10.5334 7.74289 10.6996 6.71468 10.6996C5.68648 10.6996 4.66661 10.5334 3.69506 10.2088C3.80033 10.3471 3.91655 10.4798 4.04375 10.6057C5.51887 12.066 7.91049 12.066 9.38562 10.6057C9.51282 10.4798 9.62907 10.3471 9.73434 10.2088ZM4.11223 5.25141C4.36273 5.41524 4.62909 5.55544 4.9078 5.66973C5.48065 5.90463 6.09463 6.02553 6.71468 6.02553C7.33474 6.02553 7.94872 5.90463 8.52157 5.66973C8.80028 5.55544 9.06664 5.41524 9.31717 5.2514C7.86045 3.87926 5.56892 3.87927 4.11223 5.25141Z" fill="#3B4158"/>
</g>
<defs>
<clipPath id="clip0_212_1589">
<rect width="13.3547" height="9.34826" fill="white" transform="translate(0.0373535 3.28748)"/>
</clipPath>
</defs>
</svg>
