<svg width="18" height="17" viewBox="0 0 18 17" fill="none" xmlns="http://www.w3.org/2000/svg">
<rect width="16.0256" height="16.0256" rx="2.67093" fill="#F5F7FA"/>
<g clip-path="url(#clip0_212_1616)">
<path d="M4.12096 4.62292C3.44297 4.62292 2.79275 4.89225 2.31334 5.37167L0.748743 6.93626C0.26933 7.41567 0 8.06589 0 8.74388C0 10.1557 1.14453 11.3003 2.55637 11.3003C3.23437 11.3003 3.88458 11.0309 4.36399 10.5515L5.44623 9.46926C5.44623 9.46924 5.44625 9.46929 5.44623 9.46926L8.59951 6.31598C8.82848 6.08702 9.13902 5.95839 9.46282 5.95839C10.0049 5.95839 10.4645 6.31171 10.6239 6.80064L11.619 5.80547C11.1651 5.09442 10.369 4.62292 9.46282 4.62292C8.78483 4.62292 8.13461 4.89225 7.6552 5.37167L3.41968 9.6072C3.19072 9.83616 2.88018 9.96479 2.55637 9.96479C1.88208 9.96479 1.33547 9.41818 1.33547 8.74388C1.33547 8.42008 1.4641 8.10954 1.69306 7.88057L3.25765 6.31598C3.48661 6.08702 3.79715 5.95839 4.12096 5.95839C4.66309 5.95839 5.12267 6.31173 5.28201 6.80067L6.2772 5.8055C5.82321 5.09443 5.02716 4.62292 4.12096 4.62292Z" fill="#394149"/>
<path d="M8.76163 9.6072C8.53267 9.83616 8.22213 9.96479 7.89832 9.96479C7.35628 9.96479 6.89672 9.61156 6.73733 9.12271L5.74219 10.1179C6.1962 10.8288 6.99221 11.3003 7.89832 11.3003C8.57631 11.3003 9.22653 11.0309 9.70594 10.5515L13.9415 6.31598C14.1704 6.08702 14.481 5.95839 14.8048 5.95839C15.4791 5.95839 16.0257 6.50501 16.0257 7.1793C16.0257 7.5031 15.897 7.81364 15.6681 8.04261L14.1035 9.6072C13.8745 9.83616 13.564 9.96479 13.2402 9.96479C12.6981 9.96479 12.2385 9.61149 12.0792 9.1226L11.084 10.1178C11.538 10.8288 12.334 11.3003 13.2402 11.3003C13.9182 11.3003 14.5684 11.0309 15.0478 10.5515L16.6124 8.98692C17.0918 8.50751 17.3611 7.85729 17.3611 7.1793C17.3611 5.76745 16.2166 4.62292 14.8048 4.62292C14.1268 4.62292 13.4766 4.89225 12.9972 5.37167L8.76163 9.6072Z" fill="#394149"/>
</g>
<defs>
<clipPath id="clip0_212_1616">
<rect width="17.3611" height="6.67733" fill="white" transform="translate(0 4.62292)"/>
</clipPath>
</defs>
</svg>
