<svg width="19" height="17" viewBox="0 0 19 17" fill="none" xmlns="http://www.w3.org/2000/svg">
<rect width="16.0256" height="16.0256" rx="2.67093" fill="#F5F7FA"/>
<g clip-path="url(#clip0_212_1592)">
<path d="M18.3612 6.51585C18.3631 6.50193 18.3631 6.48786 18.3612 6.47394C18.363 6.46259 18.363 6.45102 18.3612 6.43966L18.2252 5.46054C18.2056 5.3434 18.1531 5.23392 18.0737 5.14433L18.0503 5.11766L18.0076 5.07575L15.6526 3.08705L15.7187 3.15182C15.6646 3.08843 15.5968 3.03772 15.5201 3.00343C15.4435 2.96915 15.3599 2.95216 15.2757 2.95371H14.5606C14.4444 2.95145 14.3308 2.9877 14.2381 3.05658C14.1408 2.98811 14.0237 2.95205 13.9039 2.95371H13.1889C13.0951 2.95222 13.0026 2.97504 12.9207 3.01986C12.8388 3.06468 12.7704 3.12992 12.7225 3.20897C12.6487 3.32186 12.6209 3.45789 12.6448 3.58994L12.7342 4.20713C12.675 4.17422 12.608 4.15714 12.5399 4.1576H9.0774C8.95317 4.15837 8.8318 4.19406 8.72764 4.26046C8.62693 4.32227 8.54608 4.41076 8.49449 4.51572L8.22634 4.29094C8.12081 4.19521 7.98151 4.14332 7.83774 4.14617H2.40502C2.28035 4.1484 2.15845 4.18254 2.0514 4.24523C1.90494 4.32927 1.79761 4.46591 1.75216 4.6262L0.0267483 10.2837C-0.00549049 10.3769 -0.0086619 10.4775 0.0176402 10.5725C0.0439424 10.6675 0.0985269 10.7526 0.174421 10.8171C0.194196 10.8335 0.21496 10.8488 0.236599 10.8628C0.236599 10.8628 0.201619 10.8399 0.182188 10.8209L2.53716 12.8134C2.63678 12.9033 2.76702 12.9536 2.90242 12.9544H8.37791C8.50296 12.9512 8.62494 12.9157 8.73155 12.8515C8.79184 12.8192 8.84578 12.7766 8.89087 12.7258L8.9103 12.6991L8.94139 12.661L8.9647 12.6191L9.22119 12.8363C9.31938 12.9226 9.4468 12.9701 9.5787 12.9696H15.0658C15.1907 12.9655 15.3125 12.9301 15.4195 12.8667C15.4784 12.8325 15.532 12.7901 15.5788 12.741L15.5982 12.7144L15.6293 12.6763C15.6458 12.6522 15.6602 12.6267 15.672 12.6C15.6847 12.577 15.6952 12.5527 15.7031 12.5277L17.277 7.36163V7.31591C17.2789 7.29818 17.2789 7.2803 17.277 7.26257V7.22829C17.2789 7.21692 17.2789 7.20535 17.277 7.19399C17.2788 7.1699 17.2788 7.14571 17.277 7.12159H17.7822C17.8261 7.12555 17.8704 7.12555 17.9143 7.12159H17.9493C17.9777 7.11328 18.0051 7.10176 18.0309 7.08731H18.0698L18.1397 7.03398L18.1708 7.01112L18.2252 6.94253V6.9197L18.2641 6.85492C18.2619 6.84232 18.2619 6.82943 18.2641 6.81683C18.262 6.81065 18.262 6.80396 18.2641 6.79778C18.2723 6.77544 18.2788 6.75251 18.2835 6.72919C18.2817 6.72168 18.2817 6.71384 18.2835 6.70633C18.2816 6.69499 18.2816 6.68339 18.2835 6.67205C18.2835 6.67205 18.3612 6.52346 18.3612 6.51585Z" fill="black"/>
<path d="M7.99703 4.58048C8.01767 4.59877 8.03208 4.62282 8.03832 4.64939C8.0446 4.67596 8.04238 4.70376 8.03202 4.72906L6.3105 10.3828C6.28882 10.4445 6.24447 10.4961 6.18614 10.5275C6.13868 10.5587 6.08375 10.5771 6.0268 10.5809H0.555226C0.508498 10.5787 0.464229 10.5597 0.43087 10.5275C0.411025 10.5095 0.397098 10.4862 0.390867 10.4604C0.384637 10.4346 0.386391 10.4076 0.395897 10.3828L2.12131 4.72906C2.14119 4.66656 2.18415 4.61357 2.24178 4.58048C2.29002 4.55159 2.3447 4.5346 2.40111 4.53095H7.87268C7.91904 4.53139 7.9635 4.5491 7.99703 4.58048ZM5.14077 9.24365L6.17059 5.86818H3.28714L2.2612 9.24365H5.14077ZM13.2199 4.63763C13.2386 4.6589 13.2619 4.67576 13.2882 4.68698C13.3144 4.69819 13.3429 4.70346 13.3715 4.70239H14.0826C14.1097 4.70265 14.1364 4.69614 14.1602 4.68348C14.184 4.67081 14.2041 4.65241 14.2186 4.63001C14.2313 4.61251 14.2402 4.5927 14.2449 4.57176C14.2495 4.55082 14.2499 4.52917 14.2458 4.5081L14.1059 3.50232C14.0926 3.45577 14.0687 3.41278 14.036 3.37659C14.0173 3.35532 13.994 3.33846 13.9678 3.32724C13.9415 3.31603 13.913 3.31076 13.8844 3.31183H13.1733C13.1462 3.31157 13.1195 3.31808 13.0957 3.33074C13.0719 3.34341 13.0518 3.36181 13.0373 3.38422C13.0101 3.43755 12.9984 3.47184 13.0101 3.50232L13.1539 4.5081C13.1612 4.55707 13.1844 4.60245 13.2199 4.63763ZM15.4777 3.4947C15.4644 3.44814 15.4405 3.40516 15.4078 3.36897C15.3899 3.34778 15.3672 3.33092 15.3416 3.31969C15.316 3.30846 15.2881 3.30316 15.2601 3.30421H14.5451C14.5184 3.30346 14.4921 3.3098 14.4688 3.32254C14.4456 3.33528 14.4263 3.35396 14.4129 3.37659C14.3871 3.41039 14.3759 3.45285 14.3819 3.4947L14.5256 4.50048C14.5347 4.54893 14.5576 4.59386 14.5917 4.63001C14.6107 4.65086 14.6341 4.66744 14.6603 4.67862C14.6864 4.6898 14.7147 4.69531 14.7432 4.69477H15.4583C15.4849 4.69512 15.511 4.68861 15.5342 4.67591C15.5574 4.6632 15.5768 4.64475 15.5904 4.62239C15.6039 4.60535 15.6134 4.58554 15.6181 4.56445C15.6228 4.54336 15.6226 4.5215 15.6176 4.50048L15.4777 3.4947ZM12.5943 5.01861L12.5243 4.52333H9.07737C9.02325 4.52626 8.97089 4.54336 8.9258 4.57286C8.89719 4.58816 8.87227 4.60937 8.85281 4.63502C8.83338 4.66068 8.81983 4.69016 8.81313 4.72144L8.52555 5.66626C8.51407 5.68987 8.51014 5.71636 8.5143 5.74221C8.51848 5.76805 8.53052 5.79204 8.54886 5.81104C8.58163 5.84124 8.6244 5.85884 8.66934 5.86057H12.8585L11.8287 9.23604H7.65118C7.59731 9.23724 7.54485 9.25306 7.49963 9.28173C7.44467 9.31596 7.40453 9.36887 7.38693 9.43032L7.09548 10.3752C7.08597 10.3994 7.08347 10.4257 7.08826 10.4513C7.09308 10.4768 7.10497 10.5006 7.12266 10.5199C7.15442 10.5521 7.19752 10.5712 7.24314 10.5732H12.7303C12.787 10.5685 12.8417 10.5502 12.8896 10.5199C12.947 10.4883 12.99 10.4366 13.0101 10.3752L14.5878 5.20909H12.8119C12.7837 5.20964 12.7557 5.20451 12.7297 5.19403C12.7036 5.18354 12.68 5.16792 12.6603 5.14813C12.6282 5.11359 12.6055 5.07166 12.5943 5.02623V5.01861Z" fill="white"/>
</g>
<defs>
<clipPath id="clip0_212_1592">
<rect width="18.3627" height="10.016" fill="white" transform="translate(0 2.95361)"/>
</clipPath>
</defs>
</svg>
